solid Onshape
  facet normal 0 0 -1
    outer loop
      vertex -0.044 -0.044 0
      vertex -0.044 0.044 0
      vertex 0.044 -0.044 0
    endloop
  endfacet
  facet normal 0 0 -1
    outer loop
      vertex -0.044 0.044 0
      vertex 0.044 0.044 0
      vertex 0.044 -0.044 0
    endloop
  endfacet
  facet normal 0 0 1
    outer loop
      vertex -0.044 0.044 0.0095
      vertex -0.044 -0.044 0.0095
      vertex 0.044 0.044 0.0095
    endloop
  endfacet
  facet normal 0 0 1
    outer loop
      vertex -0.044 -0.044 0.0095
      vertex 0.044 -0.044 0.0095
      vertex 0.044 0.044 0.0095
    endloop
  endfacet
  facet normal 0 -1 0
    outer loop
      vertex 0.044 -0.044 0.0095
      vertex -0.044 -0.044 0.0095
      vertex 0.044 -0.044 0
    endloop
  endfacet
  facet normal 0 -1 0
    outer loop
      vertex -0.044 -0.044 0.0095
      vertex -0.044 -0.044 0
      vertex 0.044 -0.044 0
    endloop
  endfacet
  facet normal -1 0 0
    outer loop
      vertex -0.044 -0.044 0.0095
      vertex -0.044 0.044 0.0095
      vertex -0.044 -0.044 0
    endloop
  endfacet
  facet normal -1 0 0
    outer loop
      vertex -0.044 0.044 0.0095
      vertex -0.044 0.044 0
      vertex -0.044 -0.044 0
    endloop
  endfacet
  facet normal 1 0 0
    outer loop
      vertex 0.044 0.044 0.0095
      vertex 0.044 -0.044 0.0095
      vertex 0.044 0.044 0
    endloop
  endfacet
  facet normal 1 0 0
    outer loop
      vertex 0.044 -0.044 0.0095
      vertex 0.044 -0.044 0
      vertex 0.044 0.044 0
    endloop
  endfacet
  facet normal 0 1 0
    outer loop
      vertex -0.044 0.044 0.0095
      vertex 0.044 0.044 0.0095
      vertex -0.044 0.044 0
    endloop
  endfacet
  facet normal 0 1 0
    outer loop
      vertex 0.044 0.044 0.0095
      vertex 0.044 0.044 0
      vertex -0.044 0.044 0
    endloop
  endfacet
endsolid Onshape
