solid Onshape
  facet normal 0 0 1
    outer loop
      vertex -0.915 0.455 0
      vertex -0.915 -0.455 0
      vertex 0.915 0.455 0
    endloop
  endfacet
  facet normal 0 0 1
    outer loop
      vertex -0.915 -0.455 0
      vertex 0.915 -0.455 0
      vertex 0.915 0.455 0
    endloop
  endfacet
  facet normal 0 0 -1
    outer loop
      vertex -0.915 -0.455 -0.876
      vertex -0.915 0.455 -0.876
      vertex 0.915 -0.455 -0.876
    endloop
  endfacet
  facet normal 0 0 -1
    outer loop
      vertex -0.915 0.455 -0.876
      vertex 0.915 0.455 -0.876
      vertex 0.915 -0.455 -0.876
    endloop
  endfacet
  facet normal 0 -1 0
    outer loop
      vertex -0.915 -0.455 -0.876
      vertex 0.915 -0.455 -0.876
      vertex -0.915 -0.455 0
    endloop
  endfacet
  facet normal 0 -1 0
    outer loop
      vertex 0.915 -0.455 -0.876
      vertex 0.915 -0.455 0
      vertex -0.915 -0.455 0
    endloop
  endfacet
  facet normal -1 0 0
    outer loop
      vertex -0.915 0.455 -0.876
      vertex -0.915 -0.455 -0.876
      vertex -0.915 0.455 0
    endloop
  endfacet
  facet normal -1 0 0
    outer loop
      vertex -0.915 -0.455 -0.876
      vertex -0.915 -0.455 0
      vertex -0.915 0.455 0
    endloop
  endfacet
  facet normal 1 0 0
    outer loop
      vertex 0.915 -0.455 -0.876
      vertex 0.915 0.455 -0.876
      vertex 0.915 -0.455 0
    endloop
  endfacet
  facet normal 1 0 0
    outer loop
      vertex 0.915 0.455 -0.876
      vertex 0.915 0.455 0
      vertex 0.915 -0.455 0
    endloop
  endfacet
  facet normal 0 1 0
    outer loop
      vertex 0.915 0.455 -0.876
      vertex -0.915 0.455 -0.876
      vertex 0.915 0.455 0
    endloop
  endfacet
  facet normal 0 1 0
    outer loop
      vertex -0.915 0.455 -0.876
      vertex -0.915 0.455 0
      vertex 0.915 0.455 0
    endloop
  endfacet
endsolid Onshape
