solid Onshape
  facet normal 0 0 -1
    outer loop
      vertex -1.115 -0.025 0
      vertex -1.115 0.025 0
      vertex 1.115 -0.025 0
    endloop
  endfacet
  facet normal 0 0 -1
    outer loop
      vertex -1.115 0.025 0
      vertex 1.115 0.025 0
      vertex 1.115 -0.025 0
    endloop
  endfacet
  facet normal 0 0 1
    outer loop
      vertex -1.115 0.025 1
      vertex -1.115 -0.025 1
      vertex 1.115 0.025 1
    endloop
  endfacet
  facet normal 0 0 1
    outer loop
      vertex -1.115 -0.025 1
      vertex 1.115 -0.025 1
      vertex 1.115 0.025 1
    endloop
  endfacet
  facet normal 0 -1 0
    outer loop
      vertex 1.115 -0.025 1
      vertex -1.115 -0.025 1
      vertex 1.115 -0.025 0
    endloop
  endfacet
  facet normal 0 -1 0
    outer loop
      vertex -1.115 -0.025 1
      vertex -1.115 -0.025 0
      vertex 1.115 -0.025 0
    endloop
  endfacet
  facet normal -1 0 0
    outer loop
      vertex -1.115 -0.025 1
      vertex -1.115 0.025 1
      vertex -1.115 -0.025 0
    endloop
  endfacet
  facet normal -1 0 0
    outer loop
      vertex -1.115 0.025 1
      vertex -1.115 0.025 0
      vertex -1.115 -0.025 0
    endloop
  endfacet
  facet normal 1 0 0
    outer loop
      vertex 1.115 0.025 1
      vertex 1.115 -0.025 1
      vertex 1.115 0.025 0
    endloop
  endfacet
  facet normal 1 0 0
    outer loop
      vertex 1.115 -0.025 1
      vertex 1.115 -0.025 0
      vertex 1.115 0.025 0
    endloop
  endfacet
  facet normal 0 1 0
    outer loop
      vertex -1.115 0.025 1
      vertex 1.115 0.025 1
      vertex -1.115 0.025 0
    endloop
  endfacet
  facet normal 0 1 0
    outer loop
      vertex 1.115 0.025 1
      vertex 1.115 0.025 0
      vertex -1.115 0.025 0
    endloop
  endfacet
endsolid Onshape
